<?xml version="1.0" encoding="UTF-8"?>
<svg version="1.1" xmlns="http://www.w3.org/2000/svg" width="80" height="80">
<path d="M0 0 C26.4 0 52.8 0 80 0 C80 26.4 80 52.8 80 80 C53.6 80 27.2 80 0 80 C0 53.6 0 27.2 0 0 Z " fill="#F8F7F7" transform="translate(0,0)"/>
<path d="M0 0 C3.70791544 -0.14592789 7.41508726 -0.23427895 11.125 -0.3125 C12.69507813 -0.3753418 12.69507813 -0.3753418 14.296875 -0.43945312 C23.02756089 -0.57759689 23.02756089 -0.57759689 26.6796875 2.39453125 C29.92234065 6.03569228 30.28487734 8.06715532 30.22265625 12.96484375 C29.90143435 15.90092462 28.81916075 17.70920498 27 20 C26.01 20.66 25.02 21.32 24 22 C25.55715875 25.51590054 27.68580036 28.22811262 30.125 31.1875 C34 35.89679715 34 35.89679715 34 37 C30.9375 37.5625 30.9375 37.5625 27 37 C24.24862054 34.27517826 22.11251255 31.23618944 20 28 C20.5053125 29.13179687 21.010625 30.26359375 21.53125 31.4296875 C22.18769289 32.91137289 22.84393237 34.39314841 23.5 35.875 C23.83386719 36.62136719 24.16773438 37.36773437 24.51171875 38.13671875 C24.82753906 38.85214844 25.14335938 39.56757812 25.46875 40.3046875 C25.76201172 40.96452637 26.05527344 41.62436523 26.35742188 42.30419922 C27 44 27 44 27 46 C29.97 46 32.94 46 36 46 C36 47.65 36 49.3 36 51 C31.71 51 27.42 51 23 51 C18.73394382 42.84430435 15.34832995 34.56549521 12 26 C6.72 26 1.44 26 -4 26 C-5.65 29.3 -7.3 32.6 -9 36 C-10.98 36 -12.96 36 -15 36 C-12.54933568 28.02889185 -9.24006872 20.52991078 -5.8125 12.9375 C-5.24765492 11.67791007 -4.68319889 10.4181456 -4.11914062 9.15820312 C-2.74989682 6.10373617 -1.37676603 3.05108191 0 0 Z " fill="#0E0E0E" transform="translate(24,14)"/>
<path d="M0 0 C1.65 0 3.3 0 5 0 C5 2.31 5 4.62 5 7 C5.66 7 6.32 7 7 7 C7 6.34 7 5.68 7 5 C7.66 5 8.32 5 9 5 C9.1875 7.875 9.1875 7.875 9 11 C8.01 11.66 7.02 12.32 6 13 C5.41518879 15.88595946 5.41518879 15.88595946 5.3125 19.125 C5.24675781 20.22070312 5.18101563 21.31640625 5.11328125 22.4453125 C5.07589844 23.28835937 5.03851563 24.13140625 5 25 C6.98 25 8.96 25 11 25 C11 26.32 11 27.64 11 29 C7.37 29 3.74 29 0 29 C0 25.7 0 22.4 0 19 C-1.65 19.99 -3.3 20.98 -5 22 C-5.36666667 16.5 -5.36666667 16.5 -3.625 14.125 C-2 13 -2 13 0 13 C0 8.71 0 4.42 0 0 Z " fill="#0D0D0D" transform="translate(60,21)"/>
<path d="M0 0 C1.98 0 3.96 0 6 0 C4.68 3.96 3.36 7.92 2 12 C4.97 12 7.94 12 11 12 C10.34 13.65 9.68 15.3 9 17 C5.7 17 2.4 17 -1 17 C-1.33 18.32 -1.66 19.64 -2 21 C-3.98 21 -5.96 21 -8 21 C-7.32512263 16.18080529 -5.42034091 12.08116134 -3.4375 7.6875 C-2.9434668 6.57665039 -2.9434668 6.57665039 -2.43945312 5.44335938 C-1.63082877 3.62688438 -0.81602884 1.81316069 0 0 Z " fill="#0F0F0F" transform="translate(26,44)"/>
<path d="M0 0 C1.58246707 -0.08153933 3.16616273 -0.13943557 4.75 -0.1875 C6.07257812 -0.23970703 6.07257812 -0.23970703 7.421875 -0.29296875 C10.49951615 0.0567632 11.8043956 0.84468192 14 3 C14.5 5.9375 14.5 5.9375 14 9 C12.3125 11.375 12.3125 11.375 10 13 C7.35546875 13.1015625 7.35546875 13.1015625 5 13 C4.16209211 11.21046815 3.32980604 9.41830305 2.5 7.625 C1.80390625 6.12839844 1.80390625 6.12839844 1.09375 4.6015625 C0 2 0 2 0 0 Z " fill="#F1F1F1" transform="translate(34,19)"/>
<path d="M0 0 C3.32532111 2.69192661 4.52454943 6.06546515 6 10 C6 10.99 6 11.98 6 13 C2.37 13 -1.26 13 -5 13 C-2.05357143 3.89285714 -2.05357143 3.89285714 0 0 Z " fill="#E1E1E1" transform="translate(27,21)"/>
<path d="M0 0 C0.66 0 1.32 0 2 0 C2 2.97 2 5.94 2 9 C-2 7 -2 7 -3 4 C-1.6875 1.8125 -1.6875 1.8125 0 0 Z " fill="#F1F1F1" transform="translate(57,41)"/>
<path d="M0 0 C3.28788824 3.11016455 5.83735988 6.01618925 8 10 C6.68 10.33 5.36 10.66 4 11 C3.32880451 9.5437455 2.66318193 8.08492133 2 6.625 C1.62875 5.81289063 1.2575 5.00078125 0.875 4.1640625 C0 2 0 2 0 0 Z " fill="#DEDEDD" transform="translate(43,41)"/>
</svg>
